<svg xmlns="http://www.w3.org/2000/svg" width="27.415" height="10.48" viewBox="0 0 27.415001 10.48"><g style="line-height:125%" font-size="20" font-family="PT Sans Narrow" letter-spacing="0" word-spacing="0" font-stretch="condensed" fill="#fff"><path d="M5.12 10.24v-6.1q0-1.5-.36-2.16-.34-.68-1.24-.68-.8 0-1.32.48t-.76 1.18v7.28H0v-10h1.04L1.3 1.3h.06Q1.74.76 2.38.38 3.04 0 3.94 0q.64 0 1.12.18.5.18.82.62.34.42.5 1.14.18.72.18 1.82v6.48H5.12zM14.77 9.56q-.48.44-1.22.68-.74.24-1.56.24-.94 0-1.64-.36-.68-.38-1.14-1.06-.44-.7-.66-1.66-.2-.96-.2-2.16 0-2.56.94-3.9Q10.23 0 11.95 0q.56 0 1.1.14.56.14 1 .56.44.42.7 1.18.28.76.28 1.98 0 .34-.04.74-.02.38-.06.8H9.85q0 .86.14 1.56.14.7.44 1.2.3.48.76.76.48.26 1.18.26.54 0 1.06-.2.54-.2.82-.48l.52 1.06zM13.65 4.2q.04-1.5-.42-2.2-.46-.7-1.26-.7-.92 0-1.46.7-.54.7-.64 2.2h3.78zM22.215.24l1.78 5.84.36 1.92h.04l.3-1.96 1.36-5.8h1.36l-2.66 10.22h-.82l-2.02-6.56-.28-1.68h-.04l-.28 1.7-1.96 6.54h-.82L15.795.24h1.54l1.54 5.82.24 1.94h.04l.36-1.98 1.64-5.78h1.06z" style="-inkscape-font-specification:'PT Sans Narrow Condensed'"/></g></svg>