<?xml version="1.0" encoding="UTF-8" standalone="no"?>
<!-- Created with Inkscape (http://www.inkscape.org/) -->

<svg
   xmlns:dc="http://purl.org/dc/elements/1.1/"
   xmlns:cc="http://creativecommons.org/ns#"
   xmlns:rdf="http://www.w3.org/1999/02/22-rdf-syntax-ns#"
   xmlns:svg="http://www.w3.org/2000/svg"
   xmlns="http://www.w3.org/2000/svg"
   xmlns:sodipodi="http://sodipodi.sourceforge.net/DTD/sodipodi-0.dtd"
   xmlns:inkscape="http://www.inkscape.org/namespaces/inkscape"
   width="22.274687"
   height="8.5150003"
   viewBox="0 0 22.274687 8.5150006"
   id="svg4148"
   version="1.1"
   inkscape:version="0.91 r13725"
   sodipodi:docname="flag-new.svg">
  <defs
     id="defs4150" />
  <sodipodi:namedview
     id="base"
     pagecolor="#ffffff"
     bordercolor="#666666"
     borderopacity="1.0"
     inkscape:pageopacity="0.0"
     inkscape:pageshadow="2"
     inkscape:zoom="7.9195959"
     inkscape:cx="40.042724"
     inkscape:cy="-15.798481"
     inkscape:document-units="px"
     inkscape:current-layer="layer1"
     showgrid="false"
     units="px"
     inkscape:window-width="1600"
     inkscape:window-height="838"
     inkscape:window-x="-8"
     inkscape:window-y="-8"
     inkscape:window-maximized="1"
     fit-margin-top="0"
     fit-margin-left="0"
     fit-margin-right="0"
     fit-margin-bottom="0"
     showguides="false" />
  <metadata
     id="metadata4153">
    <rdf:RDF>
      <cc:Work
         rdf:about="">
        <dc:format>image/svg+xml</dc:format>
        <dc:type
           rdf:resource="http://purl.org/dc/dcmitype/StillImage" />
        <dc:title></dc:title>
      </cc:Work>
    </rdf:RDF>
  </metadata>
  <g
     inkscape:label="Layer 1"
     inkscape:groupmode="layer"
     id="layer1"
     transform="translate(-131.26843,-459.16389)">
    <g
       style="font-style:normal;font-weight:normal;font-size:18.75px;line-height:125%;font-family:sans-serif;letter-spacing:0px;word-spacing:0px;fill:#000000;fill-opacity:1;stroke:none;stroke-width:1px;stroke-linecap:butt;stroke-linejoin:miter;stroke-opacity:1"
       id="text4696">
      <path
         d="m 135.42843,467.48389 0,-4.95625 q 0,-1.21875 -0.2925,-1.755 -0.27625,-0.5525 -1.0075,-0.5525 -0.65,0 -1.0725,0.39 -0.4225,0.39 -0.6175,0.95875 l 0,5.915 -1.17,0 0,-8.125 0.845,0 0.21125,0.86125 0.0488,0 q 0.30875,-0.43875 0.82875,-0.7475 0.53625,-0.30875 1.2675,-0.30875 0.52,0 0.91,0.14625 0.40625,0.14625 0.66625,0.50375 0.27625,0.34125 0.40625,0.92625 0.14625,0.585 0.14625,1.47875 l 0,5.265 -1.17,0 z"
         style="font-style:normal;font-variant:normal;font-weight:normal;font-stretch:condensed;font-size:16.25px;font-family:'PT Sans Narrow';-inkscape-font-specification:'PT Sans Narrow Condensed';fill:#ffffff"
         id="path4715" />
      <path
         d="m 143.26829,466.93139 q -0.39,0.3575 -0.99125,0.5525 -0.60125,0.195 -1.2675,0.195 -0.76375,0 -1.3325,-0.2925 -0.5525,-0.30875 -0.92625,-0.86125 -0.3575,-0.56875 -0.53625,-1.34875 -0.1625,-0.78 -0.1625,-1.755 0,-2.08 0.76375,-3.16875 0.76375,-1.08875 2.16125,-1.08875 0.455,0 0.89375,0.11375 0.455,0.11375 0.8125,0.455 0.3575,0.34125 0.56875,0.95875 0.2275,0.6175 0.2275,1.60875 0,0.27625 -0.0325,0.60125 -0.0162,0.30875 -0.0487,0.65 l -4.1275,0 q 0,0.69875 0.11375,1.2675 0.11375,0.56875 0.3575,0.975 0.24375,0.39 0.6175,0.6175 0.39,0.21125 0.95875,0.21125 0.43875,0 0.86125,-0.1625 0.43875,-0.1625 0.66625,-0.39 l 0.4225,0.86125 z m -0.91,-4.355 q 0.0325,-1.21875 -0.34125,-1.7875 -0.37375,-0.56875 -1.02375,-0.56875 -0.7475,0 -1.18625,0.56875 -0.43875,0.56875 -0.52,1.7875 l 3.07125,0 z"
         style="font-style:normal;font-variant:normal;font-weight:normal;font-stretch:condensed;font-size:16.25px;font-family:'PT Sans Narrow';-inkscape-font-specification:'PT Sans Narrow Condensed';fill:#ffffff"
         id="path4717" />
      <path
         d="m 149.31811,459.35889 1.44625,4.745 0.2925,1.56 0.0325,0 0.24375,-1.5925 1.105,-4.7125 1.105,0 -2.16125,8.30375 -0.66625,0 -1.64125,-5.33 -0.2275,-1.365 -0.0325,0 -0.2275,1.38125 -1.5925,5.31375 -0.66625,0 -2.22625,-8.30375 1.25125,0 1.25125,4.72875 0.195,1.57625 0.0325,0 0.2925,-1.60875 1.3325,-4.69625 0.86125,0 z"
         style="font-style:normal;font-variant:normal;font-weight:normal;font-stretch:condensed;font-size:16.25px;font-family:'PT Sans Narrow';-inkscape-font-specification:'PT Sans Narrow Condensed';fill:#ffffff"
         id="path4719" />
    </g>
  </g>
</svg>
